<svg id="svg" version="1.1" xmlns="http://www.w3.org/2000/svg" xmlns:xlink="http://www.w3.org/1999/xlink" width="400" height="400" viewBox="0, 0, 400,400"><g id="svgg"><path id="path0" d="M170.200 41.978 C 167.836 42.946,166.729 48.238,167.847 53.228 C 168.239 54.977,168.543 58.267,168.586 61.225 C 168.627 63.989,168.774 66.434,168.914 66.660 C 169.053 66.886,169.194 69.299,169.227 72.022 C 169.259 74.746,169.478 77.430,169.712 77.987 C 169.965 78.590,170.172 82.971,170.223 88.800 C 170.270 94.190,170.508 99.790,170.753 101.243 C 171.005 102.742,171.226 109.583,171.263 117.043 C 171.339 132.430,171.257 132.104,175.600 134.317 C 178.815 135.956,185.467 139.772,187.075 140.900 C 187.937 141.505,188.823 142.000,189.042 142.000 C 189.261 142.000,190.549 142.720,191.903 143.600 C 193.258 144.480,194.472 145.200,194.602 145.200 C 195.447 145.200,202.676 149.066,204.965 150.741 C 206.485 151.854,208.285 152.882,208.965 153.026 C 209.644 153.170,210.773 153.718,211.473 154.244 C 212.174 154.770,212.921 155.200,213.133 155.200 C 213.346 155.200,214.427 155.811,215.537 156.558 C 217.688 158.005,221.129 160.089,223.533 161.400 C 224.340 161.840,226.440 163.145,228.200 164.300 C 229.960 165.455,231.532 166.400,231.694 166.400 C 231.856 166.400,232.868 166.941,233.943 167.603 C 235.019 168.265,236.504 169.017,237.243 169.275 C 237.983 169.533,239.851 170.595,241.394 171.636 C 244.460 173.703,251.137 177.600,251.613 177.600 C 251.776 177.600,252.785 178.198,253.855 178.929 C 254.925 179.659,256.340 180.533,257.000 180.871 C 257.660 181.208,260.180 182.710,262.600 184.209 C 265.020 185.707,269.250 188.079,272.000 189.480 C 274.750 190.881,277.833 192.606,278.851 193.313 C 279.869 194.021,282.364 195.656,284.396 196.947 C 289.660 200.291,289.242 202.125,282.460 205.452 C 280.844 206.245,278.897 207.442,278.135 208.111 C 276.650 209.415,274.668 210.667,273.450 211.071 C 273.037 211.208,271.867 211.760,270.850 212.298 C 269.832 212.837,268.460 213.538,267.800 213.857 C 265.938 214.756,263.460 216.229,260.245 218.348 C 259.120 219.089,256.857 220.402,255.216 221.265 C 253.574 222.128,251.684 223.244,251.016 223.744 C 250.347 224.245,248.798 225.222,247.573 225.915 C 246.349 226.608,245.016 227.540,244.611 227.987 C 244.207 228.434,243.711 228.800,243.510 228.800 C 243.308 228.800,241.221 229.857,238.872 231.150 C 236.522 232.442,234.150 233.637,233.600 233.804 C 233.050 233.971,231.880 234.597,231.000 235.196 C 230.120 235.795,228.050 237.055,226.400 237.998 C 224.750 238.941,222.908 240.050,222.306 240.464 C 221.704 240.877,220.714 241.402,220.106 241.630 C 218.677 242.165,213.719 245.102,212.302 246.253 C 211.698 246.743,210.798 247.271,210.302 247.424 C 209.434 247.694,204.465 250.572,202.400 252.002 C 201.850 252.383,200.950 252.830,200.400 252.994 C 199.850 253.158,198.860 253.695,198.200 254.186 C 197.540 254.678,196.100 255.528,195.000 256.075 C 186.436 260.337,179.902 264.685,179.233 266.567 C 178.709 268.041,179.461 275.236,180.399 277.723 C 181.358 280.267,183.114 281.385,189.000 283.199 C 189.880 283.470,191.410 284.184,192.400 284.786 C 196.145 287.063,198.728 288.348,200.797 288.962 C 201.974 289.312,203.355 289.871,203.866 290.206 C 205.230 291.100,212.033 294.000,212.769 294.001 C 213.116 294.002,214.469 294.647,215.776 295.435 C 217.082 296.222,218.882 297.149,219.776 297.494 C 220.669 297.839,221.771 298.453,222.223 298.859 C 222.676 299.264,223.886 299.752,224.911 299.944 C 225.937 300.135,227.254 300.631,227.838 301.046 C 230.341 302.823,231.157 303.246,234.000 304.243 C 238.058 305.666,239.163 306.177,240.778 307.377 C 241.535 307.940,242.514 308.400,242.952 308.400 C 243.390 308.400,244.120 308.725,244.574 309.121 C 245.028 309.518,246.300 310.068,247.400 310.344 C 248.500 310.620,250.210 311.328,251.200 311.917 C 252.190 312.506,254.440 313.643,256.200 314.445 C 257.960 315.246,260.453 316.464,261.741 317.151 C 263.028 317.838,264.358 318.400,264.695 318.400 C 265.033 318.400,266.547 319.215,268.060 320.212 C 269.572 321.208,271.218 322.179,271.718 322.369 C 272.836 322.794,275.597 324.036,279.800 326.004 C 281.560 326.829,283.450 327.641,284.000 327.809 C 284.550 327.977,286.140 328.719,287.533 329.457 C 288.926 330.196,290.378 330.800,290.758 330.800 C 291.138 330.800,291.818 331.143,292.268 331.563 C 292.719 331.983,293.877 332.729,294.842 333.222 C 298.932 335.308,297.834 338.041,291.233 342.200 C 287.160 344.766,286.574 345.168,285.800 345.932 C 285.360 346.366,283.380 347.762,281.400 349.036 C 279.420 350.309,277.710 351.453,277.600 351.578 C 277.164 352.072,272.940 355.101,272.000 355.593 C 271.450 355.882,270.422 356.586,269.715 357.159 C 267.156 359.232,265.814 360.210,264.824 360.724 C 263.658 361.330,260.969 363.263,258.861 365.011 C 258.057 365.677,256.905 366.472,256.300 366.779 C 255.695 367.085,255.200 367.479,255.200 367.655 C 255.200 367.831,254.195 368.745,252.968 369.687 C 251.740 370.629,249.985 371.981,249.068 372.690 C 248.150 373.400,246.805 374.268,246.078 374.619 C 245.351 374.971,244.568 375.672,244.337 376.178 C 244.079 376.746,243.303 377.282,242.312 377.579 C 241.356 377.865,239.875 378.868,238.653 380.056 C 237.524 381.153,235.880 382.423,235.000 382.878 C 232.656 384.090,229.147 386.419,228.005 387.520 C 226.986 388.504,224.348 390.000,223.632 390.000 C 223.412 390.000,222.409 390.879,221.404 391.954 C 220.399 393.029,218.419 394.585,217.004 395.413 C 214.442 396.911,212.000 398.978,212.000 399.647 C 212.000 399.850,252.037 400.000,306.000 400.000 L 400.000 400.000 400.000 280.200 L 400.000 160.400 398.994 160.400 C 398.034 160.400,393.826 158.289,393.395 157.592 C 393.017 156.980,383.429 152.496,380.941 151.767 C 379.088 151.224,378.319 150.770,377.818 149.924 C 377.453 149.306,376.864 148.800,376.509 148.800 C 376.154 148.800,375.579 148.566,375.231 148.280 C 374.342 147.547,369.737 144.800,369.398 144.800 C 368.470 144.800,356.781 139.215,355.600 138.207 C 355.270 137.925,354.550 137.560,354.000 137.396 C 351.844 136.752,349.776 135.525,346.917 133.194 C 346.651 132.977,346.329 132.800,346.200 132.800 C 346.072 132.800,344.849 132.284,343.483 131.654 C 342.117 131.024,339.420 129.918,337.489 129.197 C 334.795 128.191,333.820 127.619,333.302 126.743 C 332.931 126.114,332.410 125.600,332.144 125.600 C 331.879 125.600,330.814 124.953,329.779 124.163 C 327.299 122.270,312.138 115.021,309.030 114.243 C 308.387 114.082,307.127 113.446,306.230 112.830 C 301.911 109.864,300.634 109.257,296.570 108.239 C 293.567 107.486,291.658 106.742,290.061 105.701 C 288.817 104.891,286.647 103.732,285.237 103.125 C 283.828 102.518,282.298 101.673,281.837 101.246 C 280.856 100.337,275.753 97.908,273.276 97.172 C 272.328 96.890,270.798 96.004,269.876 95.202 C 268.954 94.401,266.712 93.152,264.893 92.425 C 263.075 91.699,261.185 90.794,260.693 90.415 C 260.202 90.036,258.907 89.425,257.814 89.058 C 256.722 88.691,255.175 87.937,254.375 87.383 C 253.576 86.829,252.039 86.053,250.960 85.658 C 249.881 85.264,247.889 84.185,246.534 83.260 C 245.179 82.335,243.162 81.308,242.052 80.979 C 240.942 80.649,239.932 80.213,239.806 80.010 C 239.271 79.144,234.576 75.891,232.600 75.017 C 230.890 74.261,230.152 73.614,228.972 71.838 C 227.566 69.720,226.118 68.812,224.131 68.802 C 223.873 68.801,223.153 68.376,222.531 67.858 C 221.909 67.340,220.728 66.697,219.906 66.429 C 219.084 66.161,218.308 65.775,218.183 65.572 C 217.955 65.204,209.833 61.206,209.287 61.193 C 209.129 61.190,207.650 60.373,206.000 59.379 C 204.350 58.384,202.550 57.463,202.000 57.332 C 201.450 57.200,200.667 56.802,200.260 56.446 C 199.403 55.698,197.893 54.875,192.955 52.464 C 191.000 51.509,189.087 50.564,188.705 50.364 C 188.323 50.164,187.757 50.000,187.446 50.000 C 187.135 50.000,185.917 49.348,184.740 48.551 C 182.191 46.825,176.480 44.008,175.520 44.003 C 175.146 44.002,174.696 43.743,174.520 43.428 C 173.800 42.141,171.603 41.404,170.200 41.978 M190.352 176.803 C 189.520 177.289,189.023 178.638,188.214 182.600 C 187.854 184.360,187.209 186.983,186.780 188.428 C 186.351 189.874,186.000 191.662,186.000 192.402 C 186.000 193.142,185.748 194.749,185.441 195.974 C 184.860 198.286,184.077 201.923,182.981 207.400 C 182.628 209.160,182.016 211.500,181.621 212.600 C 181.225 213.700,180.769 215.859,180.608 217.398 C 180.447 218.936,180.077 220.826,179.785 221.598 C 178.432 225.173,178.093 228.836,179.029 229.771 C 180.801 231.543,182.586 230.061,183.378 226.159 C 183.686 224.641,184.496 220.638,185.179 217.263 C 185.862 213.887,186.702 210.467,187.046 209.663 C 187.390 208.858,187.814 206.850,187.989 205.200 C 188.163 203.550,188.840 200.040,189.492 197.400 C 190.143 194.760,190.988 190.980,191.369 189.000 C 191.749 187.020,192.317 184.512,192.630 183.427 C 194.041 178.545,192.925 175.300,190.352 176.803 M166.562 190.843 C 166.143 191.306,165.167 192.008,164.394 192.403 C 162.910 193.160,156.184 198.677,154.275 200.703 C 152.083 203.028,153.136 205.505,157.800 208.998 C 158.900 209.822,160.430 211.084,161.200 211.801 C 165.693 215.991,171.295 217.451,170.251 214.161 C 169.917 213.109,167.298 210.302,165.800 209.391 C 163.638 208.076,160.462 205.116,159.990 203.976 C 159.262 202.219,159.839 201.315,163.336 198.733 C 167.441 195.702,170.389 192.825,170.395 191.844 C 170.406 190.107,167.835 189.435,166.562 190.843 M203.680 190.480 C 202.172 191.988,204.533 195.118,210.506 199.531 C 214.487 202.472,214.614 203.989,211.085 206.459 C 203.988 211.426,201.636 214.419,203.744 215.800 C 205.004 216.626,205.442 216.420,210.600 212.579 C 221.420 204.522,221.835 203.630,216.899 199.028 C 210.925 193.458,204.717 189.443,203.680 190.480 " stroke="none" fill="#44dde4" fill-rule="evenodd"></path><path id="path1" d="M133.135 111.700 C 131.668 112.887,131.547 116.600,131.608 158.639 C 131.641 181.058,131.593 218.300,131.502 241.400 C 131.409 264.932,131.493 284.455,131.692 285.800 C 132.492 291.181,135.330 291.292,143.139 286.248 C 145.263 284.877,148.350 283.062,150.000 282.215 C 151.650 281.369,153.648 280.099,154.439 279.394 C 155.252 278.670,156.558 277.986,157.439 277.823 C 158.387 277.648,160.113 276.699,161.834 275.407 C 163.393 274.238,165.643 272.788,166.834 272.187 C 168.025 271.585,169.509 270.667,170.131 270.146 C 170.753 269.626,171.430 269.200,171.636 269.200 C 172.427 269.200,177.949 266.320,178.656 265.538 C 179.065 265.085,180.120 264.348,181.000 263.900 C 181.880 263.451,183.157 262.661,183.838 262.142 C 184.519 261.624,185.248 261.200,185.459 261.200 C 185.671 261.200,186.681 260.669,187.706 260.019 C 188.730 259.369,191.060 258.075,192.884 257.143 C 194.708 256.211,197.384 254.679,198.832 253.738 C 201.321 252.122,205.324 249.916,209.800 247.694 C 210.900 247.148,212.110 246.430,212.488 246.099 C 213.435 245.272,219.709 241.600,220.178 241.600 C 220.386 241.600,221.197 241.178,221.978 240.662 C 222.760 240.147,224.750 238.951,226.400 238.005 C 228.050 237.058,230.145 235.773,231.056 235.149 C 231.966 234.525,233.149 233.847,233.684 233.644 C 234.220 233.440,236.241 232.252,238.177 231.004 C 240.112 229.755,243.609 227.736,245.948 226.518 C 248.287 225.299,250.695 223.952,251.300 223.524 C 251.905 223.096,253.785 222.020,255.477 221.134 C 257.170 220.248,259.105 219.111,259.777 218.609 C 260.450 218.106,261.630 217.381,262.400 216.999 C 263.170 216.616,264.131 216.010,264.536 215.652 C 265.180 215.082,268.959 212.968,275.800 209.350 C 276.900 208.768,278.250 207.939,278.800 207.507 C 279.350 207.075,280.880 206.224,282.200 205.616 C 285.293 204.190,288.000 201.694,288.000 200.266 C 288.000 199.456,287.604 198.964,286.300 198.152 C 285.365 197.571,283.610 196.468,282.400 195.702 C 281.190 194.935,278.400 193.318,276.200 192.107 C 274.000 190.896,271.300 189.407,270.200 188.797 C 269.100 188.187,265.950 186.295,263.200 184.591 C 260.450 182.888,256.670 180.680,254.800 179.684 C 252.930 178.689,250.680 177.396,249.800 176.811 C 247.659 175.387,244.124 173.471,242.400 172.800 C 241.630 172.501,240.026 171.568,238.835 170.728 C 237.644 169.887,236.507 169.200,236.308 169.200 C 236.109 169.200,235.374 168.767,234.673 168.238 C 233.973 167.708,231.960 166.512,230.200 165.579 C 228.440 164.647,226.529 163.554,225.952 163.152 C 225.376 162.749,224.449 162.247,223.892 162.035 C 222.581 161.536,215.190 157.287,214.369 156.559 C 214.021 156.252,213.551 156.000,213.324 156.000 C 213.097 156.000,212.212 155.518,211.356 154.929 C 210.500 154.340,208.990 153.432,208.000 152.913 C 204.654 151.158,201.405 149.150,200.400 148.216 C 199.551 147.427,195.236 145.200,194.556 145.200 C 194.435 145.200,193.405 144.583,192.268 143.828 C 191.131 143.073,189.693 142.263,189.073 142.027 C 188.453 141.792,187.373 141.167,186.673 140.639 C 185.527 139.775,182.963 138.314,175.022 134.000 C 173.604 133.230,172.119 132.318,171.722 131.973 C 170.809 131.181,166.054 128.400,165.612 128.400 C 165.429 128.400,164.366 127.785,163.248 127.032 C 162.131 126.280,159.873 124.923,158.231 124.017 C 156.590 123.111,154.212 121.746,152.947 120.985 C 151.682 120.223,150.383 119.600,150.061 119.600 C 149.739 119.600,148.829 119.105,148.038 118.500 C 147.248 117.895,145.881 117.025,145.001 116.566 C 144.120 116.108,142.263 115.028,140.874 114.166 C 135.776 111.006,134.497 110.598,133.135 111.700 M193.120 176.480 C 193.860 177.220,193.693 181.668,192.801 184.996 C 192.361 186.636,191.451 190.728,190.778 194.089 C 190.104 197.450,189.294 201.088,188.977 202.173 C 188.660 203.258,188.400 204.827,188.400 205.660 C 188.400 206.494,187.955 208.539,187.411 210.206 C 186.866 211.874,185.876 216.137,185.209 219.682 C 183.153 230.613,182.697 231.459,179.349 230.561 C 177.437 230.048,177.459 226.740,179.415 220.779 C 179.743 219.777,180.164 217.797,180.350 216.379 C 180.536 214.960,181.146 212.090,181.705 210.000 C 182.265 207.910,182.841 205.300,182.985 204.200 C 183.252 202.170,183.970 199.050,185.020 195.365 C 185.339 194.246,185.600 192.832,185.600 192.225 C 185.600 191.294,186.981 184.943,188.459 179.079 C 189.119 176.461,191.675 175.035,193.120 176.480 M169.875 189.914 C 172.270 191.437,170.652 193.950,164.118 198.861 C 158.998 202.710,159.398 204.833,166.035 209.022 C 170.747 211.997,172.358 215.906,169.162 216.608 C 166.597 217.172,153.250 206.961,152.583 203.924 C 152.140 201.907,157.338 196.357,163.215 192.575 C 164.197 191.943,165.509 191.015,166.131 190.513 C 167.252 189.607,168.962 189.334,169.875 189.914 M208.402 191.798 C 210.051 193.007,212.300 194.611,213.400 195.363 C 217.430 198.118,220.950 202.150,220.649 203.667 C 220.353 205.159,217.004 208.576,213.228 211.240 C 212.003 212.104,210.190 213.442,209.200 214.212 C 204.932 217.531,201.623 217.150,202.552 213.447 C 202.782 212.531,208.043 207.793,210.815 206.005 C 213.795 204.084,213.693 202.322,210.475 200.114 C 206.580 197.441,202.800 193.403,202.800 191.915 C 202.800 188.925,204.437 188.891,208.402 191.798 " stroke="none" fill="#07090d" fill-rule="evenodd"></path><path id="path2" d="M264.800 0.940 C 264.800 1.457,264.170 3.067,263.400 4.518 C 261.530 8.042,261.616 8.444,263.537 5.156 C 265.106 2.471,265.899 0.000,265.190 0.000 C 264.976 0.000,264.800 0.423,264.800 0.940 M297.194 0.900 C 297.190 1.395,297.009 3.952,296.791 6.582 C 296.573 9.212,296.316 14.120,296.219 17.488 C 296.074 22.510,295.850 24.312,294.974 27.506 C 294.001 31.055,293.947 31.613,294.368 33.800 C 294.888 36.501,295.464 42.187,295.967 49.600 C 296.154 52.350,296.497 55.320,296.731 56.200 C 297.333 58.472,298.000 65.017,298.002 68.684 C 298.004 70.398,298.290 73.600,298.640 75.800 C 299.410 80.655,299.951 95.909,299.622 103.500 C 299.564 104.820,295.273 103.752,292.524 101.733 C 291.272 100.813,284.545 97.550,282.726 96.980 C 282.217 96.820,281.371 96.355,280.846 95.945 C 280.321 95.535,279.591 95.200,279.223 95.200 C 278.854 95.200,277.484 94.550,276.176 93.755 C 273.897 92.368,271.664 91.180,258.800 84.505 C 255.610 82.850,252.010 80.906,250.800 80.185 C 249.590 79.465,247.295 78.480,245.699 77.998 C 244.104 77.516,242.706 76.971,242.592 76.786 C 242.390 76.460,238.723 73.976,235.300 71.847 C 234.113 71.109,233.602 70.520,233.608 69.895 C 233.621 68.407,235.809 62.753,237.351 60.224 C 238.148 58.916,238.800 57.691,238.800 57.499 C 238.800 57.308,239.870 54.944,241.178 52.246 C 243.289 47.891,243.906 46.451,244.972 43.400 C 245.125 42.960,244.942 43.140,244.564 43.800 C 244.187 44.460,243.476 45.540,242.985 46.200 C 242.494 46.860,241.958 47.850,241.794 48.400 C 241.629 48.950,240.776 50.835,239.898 52.589 C 239.020 54.342,238.049 56.495,237.740 57.371 C 237.430 58.248,236.656 59.784,236.019 60.783 C 235.383 61.782,234.735 63.320,234.580 64.200 C 234.425 65.080,234.072 66.070,233.796 66.400 C 230.090 70.824,231.057 72.019,243.600 78.516 C 246.790 80.168,249.940 81.812,250.600 82.168 C 251.260 82.525,252.610 83.173,253.600 83.609 C 255.444 84.421,258.798 86.213,264.800 89.594 C 266.670 90.647,268.627 91.638,269.149 91.797 C 270.763 92.287,284.526 99.242,285.873 100.249 C 286.574 100.772,287.311 101.200,287.511 101.200 C 287.712 101.200,288.193 101.550,288.579 101.977 C 288.966 102.405,289.849 102.873,290.541 103.017 C 291.234 103.161,292.546 103.707,293.457 104.231 C 294.369 104.755,297.429 106.181,300.257 107.399 C 303.086 108.617,306.120 110.122,307.000 110.743 C 309.166 112.271,325.879 120.678,334.600 124.627 C 335.920 125.225,338.980 126.655,341.400 127.805 C 343.820 128.956,346.384 130.091,347.098 130.327 C 347.812 130.564,349.526 131.563,350.907 132.548 C 352.287 133.533,354.366 134.713,355.526 135.171 C 356.685 135.628,358.569 136.631,359.712 137.401 C 360.854 138.170,362.024 138.800,362.312 138.800 C 362.599 138.800,364.001 139.430,365.427 140.200 C 366.853 140.970,368.213 141.600,368.448 141.600 C 368.684 141.600,369.363 141.947,369.959 142.370 C 371.691 143.604,377.693 146.671,378.964 146.972 C 379.604 147.123,380.770 147.777,381.555 148.424 C 382.340 149.071,383.166 149.602,383.391 149.605 C 383.869 149.610,390.878 153.151,395.176 155.557 C 396.813 156.473,398.568 157.327,399.076 157.455 L 400.000 157.687 400.000 149.643 C 400.000 142.625,399.921 141.600,399.376 141.600 C 399.033 141.600,398.852 141.439,398.974 141.242 C 399.096 141.045,398.886 140.765,398.509 140.620 C 397.957 140.409,397.929 140.291,398.366 140.021 C 398.697 139.817,398.831 139.277,398.710 138.643 C 398.601 138.069,398.677 137.600,398.879 137.600 C 399.082 137.600,399.136 137.420,399.000 137.200 C 398.864 136.980,399.033 136.800,399.376 136.800 C 399.939 136.800,400.000 130.084,400.000 68.400 L 400.000 0.000 388.800 0.000 L 377.600 0.000 377.600 1.000 C 377.600 1.550,377.433 2.000,377.229 2.000 C 377.025 2.000,376.504 1.550,376.071 1.000 L 375.285 0.000 336.242 0.000 L 297.200 0.000 297.194 0.900 M0.000 8.307 C 0.000 9.070,0.322 9.610,1.034 10.042 C 2.682 11.042,6.611 15.833,8.163 18.735 C 8.947 20.201,10.085 21.757,10.692 22.192 L 11.796 22.985 10.867 21.592 C 10.356 20.827,9.637 19.677,9.269 19.039 C 8.901 18.400,7.880 16.960,7.000 15.839 C 5.014 13.309,3.200 10.540,3.200 10.039 C 3.200 9.397,1.161 7.200,0.564 7.200 C 0.214 7.200,0.000 7.621,0.000 8.307 M260.613 9.879 C 260.020 10.936,259.112 12.834,258.596 14.097 C 258.080 15.361,257.285 16.919,256.829 17.559 C 256.373 18.200,256.000 18.842,256.000 18.986 C 256.000 19.361,252.911 26.006,252.181 27.200 C 251.845 27.750,251.029 29.370,250.367 30.800 C 249.706 32.230,248.478 34.750,247.639 36.400 C 246.799 38.050,246.000 39.940,245.863 40.600 C 245.685 41.455,245.939 41.167,246.744 39.600 C 247.366 38.390,249.276 34.700,250.989 31.400 C 252.701 28.100,254.361 24.860,254.677 24.200 C 254.993 23.540,255.420 22.687,255.626 22.305 C 255.832 21.923,256.000 21.411,256.000 21.166 C 256.000 20.921,256.628 19.703,257.395 18.460 C 258.162 17.217,259.142 15.210,259.573 14.000 C 260.003 12.790,260.738 11.018,261.206 10.061 C 262.379 7.663,261.934 7.526,260.613 9.879 M374.340 22.439 C 375.759 22.934,376.372 27.200,375.024 27.200 C 374.647 27.200,374.405 27.719,374.324 28.700 L 374.200 30.200 372.904 28.000 C 371.132 24.992,371.103 22.260,372.840 22.032 C 372.972 22.014,373.647 22.198,374.340 22.439 M12.105 24.000 C 12.493 24.550,13.303 25.875,13.905 26.944 C 14.507 28.013,15.909 29.993,17.020 31.344 C 18.130 32.695,19.239 34.250,19.484 34.800 C 19.994 35.947,21.211 37.532,23.151 39.576 L 24.502 41.000 23.351 39.584 C 22.718 38.805,21.570 37.037,20.800 35.655 C 20.030 34.274,18.798 32.399,18.063 31.490 C 17.327 30.580,16.092 28.747,15.318 27.418 C 14.544 26.088,13.345 24.550,12.655 24.000 L 11.400 23.000 12.105 24.000 M27.640 46.700 C 28.086 47.745,28.855 49.050,29.349 49.600 C 29.842 50.150,30.866 51.466,31.623 52.525 C 32.380 53.584,33.379 54.934,33.842 55.525 C 34.741 56.672,37.424 60.990,39.151 64.069 C 39.728 65.097,40.830 66.791,41.600 67.833 C 42.370 68.875,43.630 70.674,44.400 71.830 C 50.620 81.171,51.147 81.948,53.405 85.126 C 54.392 86.515,55.200 87.701,55.200 87.762 C 55.200 88.242,61.630 97.358,63.117 98.987 C 64.153 100.121,65.522 102.118,66.159 103.424 C 66.797 104.731,68.082 106.675,69.016 107.744 C 69.949 108.812,71.182 110.612,71.754 111.744 C 72.326 112.875,73.602 114.700,74.589 115.800 C 75.575 116.900,76.930 118.821,77.598 120.069 C 78.267 121.317,78.967 122.397,79.155 122.469 C 79.342 122.541,80.873 124.802,82.557 127.494 C 84.241 130.186,86.470 133.583,87.509 135.043 C 88.549 136.503,89.995 138.531,90.722 139.549 C 91.450 140.567,92.487 142.030,93.028 142.800 C 93.569 143.570,94.820 145.280,95.807 146.600 C 96.795 147.920,98.277 150.387,99.101 152.082 C 99.969 153.867,100.994 155.377,101.536 155.669 C 102.051 155.947,102.836 156.900,103.279 157.787 C 103.723 158.674,104.577 159.940,105.177 160.600 C 105.778 161.260,106.678 162.520,107.179 163.400 C 107.680 164.280,108.628 165.630,109.285 166.400 C 111.105 168.532,116.036 175.670,116.470 176.800 C 116.913 177.955,121.548 185.040,123.404 187.400 C 124.096 188.280,125.177 189.900,125.806 191.000 C 128.123 195.052,130.610 196.759,131.430 194.861 C 131.587 194.497,131.674 177.053,131.623 156.095 C 131.499 105.445,130.934 108.004,140.874 114.166 C 142.263 115.028,144.120 116.108,145.001 116.566 C 145.881 117.025,147.248 117.895,148.038 118.500 C 148.829 119.105,149.708 119.600,149.993 119.600 C 150.690 119.600,147.792 117.321,145.800 116.303 C 144.920 115.853,143.643 115.061,142.962 114.542 C 142.281 114.024,141.594 113.600,141.434 113.600 C 141.275 113.600,139.852 112.820,138.272 111.866 C 133.366 108.904,132.055 108.751,131.184 111.041 C 131.002 111.522,130.816 129.979,130.773 152.058 C 130.729 174.136,130.608 192.605,130.503 193.100 C 130.045 195.269,127.208 193.109,125.202 189.064 C 124.530 187.709,123.399 185.791,122.690 184.802 C 121.980 183.814,120.470 181.720,119.333 180.150 C 118.195 178.580,116.890 176.599,116.431 175.748 C 115.972 174.897,115.261 173.750,114.850 173.200 C 114.439 172.650,113.151 170.760,111.988 169.000 C 110.824 167.240,109.488 165.408,109.019 164.928 C 108.549 164.449,107.910 163.549,107.598 162.928 C 106.977 161.696,104.500 158.189,101.936 154.914 C 101.038 153.767,99.899 151.955,99.404 150.888 C 98.910 149.821,97.972 148.329,97.320 147.574 C 96.668 146.818,96.015 145.930,95.868 145.600 C 95.720 145.270,94.973 144.190,94.206 143.200 C 93.439 142.210,92.159 140.410,91.361 139.200 C 90.564 137.990,89.547 136.602,89.100 136.115 C 88.654 135.628,88.089 134.894,87.844 134.483 C 86.194 131.708,82.136 125.610,80.602 123.600 C 79.846 122.610,78.580 120.606,77.789 119.147 C 76.998 117.688,75.541 115.545,74.551 114.386 C 73.561 113.227,72.327 111.439,71.807 110.414 C 71.287 109.389,70.566 108.304,70.205 108.004 C 69.843 107.704,69.267 106.905,68.924 106.229 C 68.581 105.553,67.719 104.280,67.008 103.400 C 66.297 102.520,65.342 101.068,64.887 100.173 C 64.431 99.279,63.746 98.289,63.363 97.973 C 62.981 97.658,62.061 96.500,61.319 95.400 C 59.419 92.583,58.145 90.753,57.315 89.650 C 56.572 88.662,55.419 86.801,54.062 84.400 C 53.627 83.630,52.699 82.370,52.001 81.600 C 51.302 80.830,50.454 79.671,50.116 79.024 C 49.371 77.599,45.046 71.105,42.641 67.800 C 41.681 66.480,39.106 62.700,36.920 59.400 C 31.267 50.868,30.572 49.880,29.620 49.018 C 29.153 48.596,28.428 47.474,28.008 46.525 C 27.588 45.576,27.151 44.800,27.037 44.800 C 26.922 44.800,27.194 45.655,27.640 46.700 M355.470 79.806 C 355.637 83.642,354.427 85.552,353.763 82.500 C 353.191 79.869,353.614 77.867,354.699 78.076 C 355.212 78.175,355.419 78.639,355.470 79.806 M350.581 97.000 C 350.291 99.246,349.665 100.153,348.671 99.772 C 347.793 99.435,347.787 97.275,348.658 95.447 C 349.708 93.246,350.938 94.240,350.581 97.000 M351.520 106.880 C 351.784 107.144,352.000 108.134,352.000 109.080 L 352.000 110.800 350.200 110.800 C 348.186 110.800,348.233 110.852,348.850 109.319 C 350.087 106.241,350.502 105.862,351.520 106.880 M349.423 114.800 C 349.740 114.800,350.000 115.052,350.000 115.361 C 350.000 116.046,352.034 116.800,353.883 116.800 C 355.966 116.800,355.092 117.471,352.605 117.782 C 351.090 117.971,350.400 118.236,350.400 118.629 C 350.400 118.943,350.124 119.200,349.786 119.200 C 349.303 119.200,349.260 119.035,349.586 118.426 C 350.157 117.359,350.104 116.447,349.432 115.775 C 348.998 115.341,348.822 115.324,348.687 115.704 C 348.429 116.425,348.152 115.993,347.848 114.400 C 347.588 113.034,347.597 113.022,348.214 113.900 C 348.561 114.395,349.105 114.800,349.423 114.800 M150.833 119.728 C 151.676 120.374,154.000 121.508,154.000 121.273 C 154.000 120.884,151.829 119.600,151.172 119.600 C 150.894 119.600,150.742 119.657,150.833 119.728 M154.400 121.788 C 154.400 121.869,155.909 122.758,157.752 123.763 C 159.596 124.768,162.044 126.222,163.192 126.995 C 164.341 127.768,165.446 128.400,165.648 128.400 C 165.850 128.400,166.732 128.852,167.608 129.405 C 168.484 129.958,169.200 130.320,169.200 130.211 C 169.200 130.007,168.193 129.346,163.600 126.534 C 158.352 123.320,156.939 122.527,155.683 122.089 C 154.977 121.843,154.400 121.708,154.400 121.788 M349.802 122.803 C 350.161 123.383,348.978 123.732,347.720 123.416 C 346.874 123.203,346.767 123.066,347.221 122.779 C 347.996 122.288,349.492 122.302,349.802 122.803 M366.740 133.955 C 367.541 134.462,366.162 135.967,365.141 135.700 C 364.147 135.441,363.414 134.142,364.103 133.864 C 364.901 133.542,366.157 133.585,366.740 133.955 M388.526 135.660 C 390.447 136.671,390.548 138.079,388.685 137.888 C 386.959 137.710,386.400 137.330,386.400 136.334 C 386.400 135.758,386.584 135.585,387.021 135.753 C 387.377 135.889,387.537 135.822,387.397 135.595 C 387.075 135.074,387.454 135.096,388.526 135.660 M385.184 137.790 C 385.736 138.131,384.518 140.202,383.420 140.789 C 382.615 141.220,382.311 141.224,381.814 140.811 C 381.476 140.531,381.200 140.436,381.200 140.600 C 381.200 140.764,380.930 140.674,380.600 140.400 C 379.919 139.835,379.813 138.745,380.384 138.180 C 380.809 137.758,384.630 137.448,385.184 137.790 M391.782 144.623 C 393.258 144.900,394.000 145.741,394.000 147.137 C 394.000 147.921,393.986 147.921,392.323 147.117 C 390.699 146.333,389.950 146.095,388.900 146.031 C 388.625 146.014,388.400 145.766,388.400 145.480 C 388.400 144.744,389.287 143.948,389.860 144.168 C 390.126 144.270,390.991 144.475,391.782 144.623 M0.000 281.400 L 0.000 400.000 105.357 400.000 L 210.713 400.000 210.962 399.009 C 211.198 398.069,213.095 396.581,217.350 393.998 C 218.257 393.447,219.990 392.055,221.200 390.905 C 222.410 389.755,223.567 388.811,223.772 388.807 C 224.380 388.796,229.288 385.559,230.800 384.172 C 231.570 383.466,232.774 382.599,233.476 382.246 C 234.178 381.893,235.942 380.703,237.397 379.602 C 238.852 378.501,240.202 377.600,240.397 377.600 C 240.592 377.600,241.888 376.742,243.276 375.694 C 244.664 374.645,246.595 373.273,247.567 372.644 C 249.170 371.606,253.510 368.231,254.000 367.641 C 254.699 366.799,259.483 363.208,264.570 359.707 C 266.093 358.658,267.826 357.440,268.421 357.000 C 269.016 356.560,271.279 354.975,273.451 353.477 C 281.598 347.859,283.788 346.319,285.175 345.228 C 285.959 344.611,287.365 343.719,288.300 343.245 C 289.235 342.771,290.000 342.252,290.001 342.092 C 290.001 341.931,290.856 341.265,291.901 340.610 C 292.945 339.956,294.248 339.011,294.796 338.510 C 295.344 338.010,295.934 337.600,296.109 337.600 C 296.543 337.600,297.137 335.912,296.912 335.319 C 296.812 335.055,296.070 334.631,295.265 334.376 C 294.459 334.122,293.170 333.496,292.400 332.985 C 291.630 332.475,290.010 331.712,288.800 331.290 C 287.590 330.868,285.900 330.045,285.044 329.461 C 284.188 328.878,283.198 328.397,282.844 328.393 C 282.490 328.389,281.407 327.848,280.438 327.191 C 279.469 326.535,277.944 325.800,277.051 325.560 C 275.036 325.017,270.911 322.957,268.009 321.044 C 266.804 320.250,265.612 319.600,265.359 319.600 C 265.107 319.600,262.762 318.590,260.150 317.356 C 257.537 316.121,254.450 314.779,253.289 314.373 C 252.128 313.968,250.148 313.003,248.889 312.231 C 247.630 311.458,245.340 310.355,243.800 309.779 C 242.260 309.203,239.200 307.836,237.000 306.741 C 234.800 305.646,231.858 304.313,230.462 303.779 C 229.066 303.245,227.387 302.356,226.731 301.804 C 226.075 301.252,225.147 300.797,224.669 300.794 C 224.191 300.791,223.350 300.537,222.800 300.230 C 220.120 298.735,216.881 297.200,216.406 297.200 C 216.114 297.200,215.319 296.781,214.638 296.269 C 213.957 295.757,212.419 295.022,211.219 294.635 C 210.020 294.248,208.601 293.587,208.067 293.167 C 207.533 292.747,206.354 292.206,205.448 291.964 C 204.542 291.723,203.260 291.120,202.600 290.624 C 201.940 290.127,200.680 289.491,199.800 289.209 C 198.920 288.927,198.006 288.543,197.768 288.356 C 197.531 288.169,196.159 287.572,194.720 287.031 C 193.280 286.489,191.456 285.606,190.665 285.070 C 189.874 284.533,188.565 283.970,187.755 283.818 C 186.945 283.666,185.827 283.240,185.270 282.871 C 184.713 282.502,183.524 281.926,182.628 281.590 C 180.312 280.723,178.822 277.959,178.809 274.506 C 178.804 273.134,178.583 271.201,178.318 270.211 C 177.869 268.529,177.911 268.273,178.963 266.305 L 180.089 264.200 178.901 265.320 C 177.792 266.367,172.492 269.200,171.643 269.200 C 171.433 269.200,170.753 269.626,170.131 270.146 C 169.509 270.667,168.025 271.585,166.834 272.187 C 165.643 272.788,163.393 274.238,161.834 275.407 C 160.113 276.699,158.387 277.648,157.439 277.823 C 156.558 277.986,155.252 278.670,154.439 279.394 C 153.648 280.099,151.650 281.369,150.000 282.215 C 148.350 283.062,145.263 284.877,143.139 286.248 C 135.729 291.034,132.608 291.145,131.732 286.654 C 131.555 285.744,131.463 271.032,131.527 253.961 L 131.645 222.921 130.522 222.211 C 129.905 221.820,129.121 221.151,128.780 220.725 C 128.431 220.290,126.940 219.627,125.380 219.214 C 120.661 217.964,118.128 216.832,114.951 214.552 C 113.270 213.346,111.333 212.262,110.647 212.143 C 108.173 211.714,105.378 210.664,104.282 209.752 C 103.667 209.240,102.459 208.631,101.599 208.400 C 100.738 208.168,99.926 207.803,99.793 207.589 C 99.661 207.375,99.237 207.200,98.851 207.200 C 98.465 207.200,96.907 206.451,95.389 205.535 C 93.871 204.619,91.833 203.631,90.860 203.338 C 89.888 203.045,88.892 202.562,88.646 202.264 C 88.401 201.966,86.940 201.321,85.400 200.830 C 83.860 200.340,81.160 199.248,79.400 198.404 C 75.895 196.724,71.980 195.155,69.234 194.330 C 67.789 193.897,67.352 193.530,66.834 192.318 C 66.217 190.874,66.064 190.792,61.000 189.176 C 58.140 188.264,55.530 187.297,55.200 187.028 C 54.870 186.758,52.471 185.849,49.868 185.006 C 46.426 183.892,44.972 183.224,44.534 182.556 C 44.156 181.979,43.096 181.394,41.681 180.983 C 40.443 180.623,38.929 179.906,38.316 179.390 C 37.556 178.751,36.220 178.288,34.123 177.935 C 31.597 177.511,30.824 177.197,29.816 176.189 C 29.007 175.381,27.563 174.639,25.594 174.021 C 23.947 173.504,22.330 172.769,22.000 172.388 C 21.456 171.761,16.480 169.200,15.805 169.200 C 15.650 169.200,15.034 168.852,14.437 168.426 C 13.839 168.000,12.111 167.365,10.596 167.014 C 9.082 166.662,7.249 165.922,6.524 165.369 C 4.842 164.086,2.061 162.820,0.900 162.809 L 0.000 162.800 0.000 281.400 " stroke="none" fill="#1546fb" fill-rule="evenodd"></path><path id="path3" d="M0.000 3.600 C 0.000 6.433,0.120 7.200,0.564 7.200 C 1.161 7.200,3.200 9.397,3.200 10.039 C 3.200 10.533,4.989 13.272,7.000 15.857 C 7.880 16.989,9.410 19.215,10.400 20.805 C 11.390 22.395,12.595 24.007,13.077 24.387 C 13.560 24.768,14.590 26.164,15.367 27.490 C 16.144 28.815,17.369 30.630,18.090 31.522 C 18.810 32.414,20.030 34.267,20.800 35.641 C 21.570 37.014,22.862 38.943,23.671 39.927 C 24.480 40.911,25.257 42.174,25.398 42.734 C 25.539 43.295,26.083 44.124,26.608 44.577 C 27.132 45.029,27.825 46.034,28.148 46.808 C 28.470 47.583,29.124 48.570,29.602 49.002 C 30.573 49.880,31.254 50.848,36.920 59.400 C 39.106 62.700,41.681 66.480,42.641 67.800 C 45.046 71.105,49.371 77.599,50.116 79.024 C 50.454 79.671,51.302 80.830,52.001 81.600 C 52.699 82.370,53.627 83.630,54.062 84.400 C 55.419 86.801,56.572 88.662,57.315 89.650 C 58.145 90.753,59.419 92.583,61.319 95.400 C 62.061 96.500,62.981 97.658,63.363 97.973 C 63.746 98.289,64.431 99.279,64.887 100.173 C 65.342 101.068,66.297 102.520,67.008 103.400 C 67.719 104.280,68.581 105.553,68.924 106.229 C 69.267 106.905,69.843 107.704,70.205 108.004 C 70.566 108.304,71.287 109.389,71.807 110.414 C 72.327 111.439,73.561 113.227,74.551 114.386 C 75.541 115.545,76.998 117.688,77.789 119.147 C 78.580 120.606,79.846 122.610,80.602 123.600 C 82.136 125.610,86.194 131.708,87.844 134.483 C 88.089 134.894,88.654 135.628,89.100 136.115 C 89.547 136.602,90.564 137.990,91.361 139.200 C 92.159 140.410,93.439 142.210,94.206 143.200 C 94.973 144.190,95.720 145.270,95.868 145.600 C 96.015 145.930,96.668 146.818,97.320 147.574 C 97.972 148.329,98.910 149.821,99.404 150.888 C 99.899 151.955,101.038 153.767,101.936 154.914 C 104.500 158.189,106.977 161.696,107.598 162.928 C 107.910 163.549,108.549 164.449,109.019 164.928 C 109.488 165.408,110.824 167.240,111.988 169.000 C 113.151 170.760,114.439 172.650,114.850 173.200 C 115.261 173.750,115.972 174.897,116.431 175.748 C 116.890 176.599,118.195 178.580,119.333 180.150 C 120.470 181.720,121.980 183.814,122.690 184.802 C 123.399 185.791,124.530 187.709,125.202 189.064 C 127.208 193.109,130.045 195.269,130.503 193.100 C 130.608 192.605,130.729 174.136,130.773 152.058 C 130.816 129.979,131.002 111.522,131.184 111.041 C 132.055 108.751,133.366 108.904,138.272 111.866 C 139.852 112.820,141.275 113.600,141.434 113.600 C 141.594 113.600,142.281 114.024,142.962 114.542 C 143.643 115.061,144.941 115.862,145.847 116.323 C 146.752 116.784,148.055 117.634,148.741 118.212 C 149.427 118.789,150.586 119.426,151.316 119.628 C 152.046 119.829,153.042 120.366,153.530 120.821 C 154.019 121.276,154.991 121.848,155.692 122.092 C 156.392 122.336,157.873 123.077,158.983 123.739 C 164.193 126.845,168.776 129.720,171.795 131.776 L 172.989 132.589 172.159 131.395 C 171.362 130.249,171.325 129.655,171.263 117.043 C 171.226 109.583,171.005 102.742,170.753 101.243 C 170.508 99.790,170.270 94.190,170.223 88.800 C 170.172 82.971,169.965 78.590,169.712 77.987 C 169.478 77.430,169.259 74.746,169.227 72.022 C 169.194 69.299,169.053 66.886,168.914 66.660 C 168.774 66.434,168.627 63.989,168.586 61.225 C 168.543 58.267,168.239 54.977,167.847 53.228 C 166.642 47.854,167.960 42.498,170.653 41.822 C 171.762 41.544,174.221 42.557,174.557 43.431 C 174.677 43.744,175.096 44.002,175.487 44.003 C 176.474 44.008,182.152 46.799,184.740 48.551 C 185.917 49.348,187.135 50.000,187.446 50.000 C 187.757 50.000,188.323 50.164,188.705 50.364 C 189.087 50.564,191.000 51.509,192.955 52.464 C 197.893 54.875,199.403 55.698,200.260 56.446 C 200.667 56.802,201.450 57.200,202.000 57.332 C 202.550 57.463,204.350 58.384,206.000 59.379 C 207.650 60.373,209.129 61.190,209.287 61.193 C 209.833 61.206,217.955 65.204,218.183 65.572 C 218.308 65.775,219.084 66.161,219.906 66.429 C 220.728 66.697,221.909 67.340,222.531 67.858 C 223.153 68.376,223.873 68.801,224.131 68.802 C 226.118 68.812,227.566 69.720,228.972 71.838 C 230.152 73.614,230.890 74.261,232.600 75.017 C 234.576 75.891,239.271 79.144,239.806 80.010 C 239.932 80.213,240.942 80.649,242.052 80.979 C 243.162 81.308,245.179 82.335,246.534 83.260 C 247.889 84.185,249.881 85.264,250.960 85.658 C 252.039 86.053,253.576 86.829,254.375 87.383 C 255.175 87.937,256.722 88.691,257.814 89.058 C 258.907 89.425,260.202 90.036,260.693 90.415 C 261.185 90.794,263.075 91.699,264.893 92.425 C 266.712 93.152,268.954 94.401,269.876 95.202 C 270.798 96.004,272.328 96.890,273.276 97.172 C 275.753 97.908,280.856 100.337,281.837 101.246 C 282.298 101.673,283.828 102.518,285.237 103.125 C 286.647 103.732,288.817 104.891,290.061 105.701 C 291.658 106.742,293.567 107.486,296.570 108.239 C 300.634 109.257,301.911 109.864,306.230 112.830 C 307.127 113.446,308.387 114.082,309.030 114.243 C 312.138 115.021,327.299 122.270,329.779 124.163 C 330.814 124.953,331.879 125.600,332.144 125.600 C 332.410 125.600,332.931 126.114,333.302 126.743 C 333.820 127.619,334.795 128.191,337.489 129.197 C 339.420 129.918,342.117 131.024,343.483 131.654 C 344.849 132.284,346.072 132.800,346.200 132.800 C 346.329 132.800,346.651 132.977,346.917 133.194 C 349.776 135.525,351.844 136.752,354.000 137.396 C 354.550 137.560,355.270 137.925,355.600 138.207 C 356.781 139.215,368.470 144.800,369.398 144.800 C 369.737 144.800,374.342 147.547,375.231 148.280 C 375.579 148.566,376.154 148.800,376.509 148.800 C 376.864 148.800,377.453 149.306,377.818 149.924 C 378.319 150.770,379.088 151.224,380.941 151.767 C 383.429 152.496,393.017 156.980,393.395 157.592 C 393.826 158.289,398.034 160.400,398.994 160.400 C 400.432 160.400,400.505 157.813,399.076 157.455 C 398.568 157.327,396.813 156.473,395.176 155.557 C 390.878 153.151,383.869 149.610,383.391 149.605 C 383.166 149.602,382.340 149.071,381.555 148.424 C 380.770 147.777,379.604 147.123,378.964 146.972 C 377.693 146.671,371.691 143.604,369.959 142.370 C 369.363 141.947,368.684 141.600,368.448 141.600 C 368.213 141.600,366.853 140.970,365.427 140.200 C 364.001 139.430,362.599 138.800,362.312 138.800 C 362.024 138.800,360.854 138.170,359.712 137.401 C 358.569 136.631,356.685 135.628,355.526 135.171 C 354.366 134.713,352.287 133.533,350.907 132.548 C 349.526 131.563,347.812 130.564,347.098 130.327 C 346.384 130.091,343.820 128.956,341.400 127.805 C 338.980 126.655,335.920 125.225,334.600 124.627 C 325.879 120.678,309.166 112.271,307.000 110.743 C 306.120 110.122,303.086 108.617,300.257 107.399 C 297.429 106.181,294.369 104.755,293.457 104.231 C 292.546 103.707,291.234 103.161,290.541 103.017 C 289.849 102.873,288.966 102.405,288.579 101.977 C 288.193 101.550,287.712 101.200,287.511 101.200 C 287.311 101.200,286.574 100.772,285.873 100.249 C 284.526 99.242,270.763 92.287,269.149 91.797 C 268.627 91.638,266.670 90.647,264.800 89.594 C 258.798 86.213,255.444 84.421,253.600 83.609 C 252.610 83.173,251.260 82.525,250.600 82.168 C 249.940 81.812,246.790 80.168,243.600 78.516 C 231.057 72.019,230.090 70.824,233.796 66.400 C 234.072 66.070,234.425 65.080,234.580 64.200 C 234.735 63.320,235.383 61.782,236.019 60.783 C 236.656 59.784,237.430 58.248,237.740 57.371 C 238.049 56.495,239.020 54.342,239.898 52.589 C 240.776 50.835,241.633 48.954,241.803 48.409 C 241.973 47.864,242.700 46.563,243.420 45.517 C 244.140 44.470,245.026 42.756,245.391 41.707 C 245.755 40.658,246.752 38.360,247.605 36.600 C 248.459 34.840,249.700 32.230,250.364 30.800 C 251.027 29.370,251.845 27.750,252.181 27.200 C 252.517 26.650,253.521 24.580,254.412 22.600 C 255.303 20.620,256.305 18.550,256.639 18.000 C 256.974 17.450,257.686 16.010,258.223 14.800 C 258.759 13.590,259.633 11.790,260.165 10.800 C 263.098 5.337,264.800 1.704,264.800 0.904 L 264.800 0.000 132.400 0.000 L 0.000 0.000 0.000 3.600 M201.291 148.654 C 201.670 149.088,202.750 149.857,203.691 150.364 L 205.400 151.286 204.200 150.275 C 202.329 148.699,200.376 147.611,201.291 148.654 M210.822 154.311 C 211.800 154.921,213.950 156.207,215.600 157.168 C 217.250 158.129,219.320 159.404,220.200 160.002 C 222.119 161.304,226.060 163.220,225.733 162.691 C 225.606 162.485,224.849 162.012,224.051 161.640 C 222.443 160.890,220.051 159.464,216.101 156.900 C 214.660 155.965,213.316 155.200,213.114 155.200 C 212.912 155.200,212.157 154.750,211.436 154.200 C 210.714 153.650,209.881 153.200,209.584 153.200 C 209.287 153.200,209.844 153.700,210.822 154.311 M238.447 170.319 C 242.071 172.666,243.306 173.068,240.300 170.922 C 239.365 170.254,238.150 169.576,237.600 169.415 C 236.978 169.233,237.299 169.575,238.447 170.319 M189.621 176.779 C 189.193 177.207,188.670 178.242,188.459 179.079 C 186.981 184.943,185.600 191.294,185.600 192.225 C 185.600 192.832,185.339 194.246,185.020 195.365 C 183.970 199.050,183.252 202.170,182.985 204.200 C 182.841 205.300,182.265 207.910,181.705 210.000 C 181.146 212.090,180.536 214.960,180.350 216.379 C 180.164 217.797,179.743 219.777,179.415 220.779 C 177.459 226.740,177.437 230.048,179.349 230.561 C 182.697 231.459,183.153 230.613,185.209 219.682 C 185.876 216.137,186.866 211.874,187.411 210.206 C 187.955 208.539,188.400 206.494,188.400 205.660 C 188.400 204.827,188.660 203.258,188.977 202.173 C 189.294 201.088,190.104 197.450,190.778 194.089 C 191.451 190.728,192.361 186.636,192.801 184.996 C 194.647 178.108,192.874 173.526,189.621 176.779 M192.720 176.880 C 193.373 177.533,193.325 181.022,192.630 183.427 C 192.317 184.512,191.749 187.020,191.369 189.000 C 190.988 190.980,190.143 194.760,189.492 197.400 C 188.840 200.040,188.163 203.550,187.989 205.200 C 187.814 206.850,187.390 208.858,187.046 209.663 C 186.702 210.467,185.862 213.887,185.179 217.263 C 184.496 220.638,183.686 224.641,183.378 226.159 C 182.586 230.061,180.801 231.543,179.029 229.771 C 178.093 228.836,178.432 225.173,179.785 221.598 C 180.077 220.826,180.447 218.936,180.608 217.398 C 180.769 215.859,181.225 213.700,181.621 212.600 C 182.016 211.500,182.628 209.160,182.981 207.400 C 184.077 201.923,184.860 198.286,185.441 195.974 C 185.748 194.749,186.000 193.142,186.000 192.402 C 186.000 191.662,186.351 189.874,186.780 188.428 C 187.209 186.983,187.854 184.360,188.214 182.600 C 189.369 176.944,190.874 175.034,192.720 176.880 M251.233 177.749 C 251.645 178.117,254.000 179.200,254.000 179.021 C 254.000 178.790,251.782 177.600,251.353 177.600 C 251.196 177.600,251.142 177.667,251.233 177.749 M166.131 190.513 C 165.509 191.015,164.197 191.943,163.215 192.575 C 157.338 196.357,152.140 201.907,152.583 203.924 C 153.250 206.961,166.597 217.172,169.162 216.608 C 172.358 215.906,170.747 211.997,166.035 209.022 C 159.398 204.833,158.998 202.710,164.118 198.861 C 169.476 194.835,171.314 192.751,170.770 191.322 C 170.015 189.336,168.019 188.988,166.131 190.513 M203.280 190.080 C 201.570 191.790,204.693 196.146,210.475 200.114 C 213.693 202.322,213.795 204.084,210.815 206.005 C 208.043 207.793,202.782 212.531,202.552 213.447 C 201.623 217.150,204.932 217.531,209.200 214.212 C 210.190 213.442,212.003 212.104,213.228 211.240 C 217.004 208.576,220.353 205.159,220.649 203.667 C 220.950 202.150,217.430 198.118,213.400 195.363 C 212.300 194.611,210.051 193.007,208.402 191.798 C 205.397 189.595,204.175 189.185,203.280 190.080 M272.400 189.735 C 272.400 189.920,276.619 192.511,278.000 193.174 L 279.000 193.654 278.000 192.831 C 276.980 191.991,272.400 189.459,272.400 189.735 M169.700 190.557 C 171.356 191.814,169.529 194.160,163.336 198.733 C 159.839 201.315,159.262 202.219,159.990 203.976 C 160.462 205.116,163.638 208.076,165.800 209.391 C 167.298 210.302,169.917 213.109,170.251 214.161 C 171.295 217.451,165.693 215.991,161.200 211.801 C 160.430 211.084,158.900 209.822,157.800 208.998 C 153.136 205.505,152.083 203.028,154.275 200.703 C 156.184 198.677,162.910 193.160,164.394 192.403 C 165.167 192.008,166.143 191.306,166.562 190.843 C 167.426 189.887,168.669 189.774,169.700 190.557 M209.967 193.424 C 221.089 201.700,221.835 203.157,217.117 207.399 C 210.561 213.294,205.128 216.707,203.744 215.800 C 201.636 214.419,203.988 211.426,211.085 206.459 C 214.614 203.989,214.487 202.472,210.506 199.531 C 204.533 195.118,202.172 191.988,203.680 190.480 C 204.547 189.613,205.348 189.988,209.967 193.424 M275.528 209.412 C 274.498 209.949,273.542 210.570,273.404 210.794 C 272.999 211.448,273.719 211.245,274.800 210.400 C 275.350 209.970,276.003 209.614,276.251 209.609 C 276.499 209.604,276.926 209.330,277.200 209.000 C 277.840 208.229,277.763 208.248,275.528 209.412 M244.000 227.530 C 239.891 229.846,235.200 232.798,235.200 233.068 C 235.200 233.177,235.785 232.911,236.500 232.478 C 237.215 232.045,239.220 230.945,240.956 230.034 C 242.692 229.122,244.603 227.977,245.203 227.488 C 245.802 227.000,246.632 226.386,247.046 226.124 C 248.893 224.956,247.097 225.785,244.000 227.530 M202.400 251.600 C 201.410 252.258,200.739 252.797,200.909 252.798 C 201.257 252.800,204.400 250.774,204.400 250.547 C 204.400 250.292,204.242 250.375,202.400 251.600 M180.036 264.764 C 178.428 266.372,177.818 268.338,178.331 270.256 C 178.589 271.222,178.804 273.134,178.809 274.506 C 178.822 277.959,180.312 280.723,182.628 281.590 C 183.524 281.926,184.713 282.502,185.270 282.871 C 185.827 283.240,186.945 283.666,187.755 283.818 C 188.565 283.970,189.874 284.533,190.665 285.070 C 191.456 285.606,193.280 286.489,194.720 287.031 C 196.159 287.572,197.531 288.169,197.768 288.356 C 198.006 288.543,198.920 288.927,199.800 289.209 C 200.680 289.491,201.940 290.127,202.600 290.624 C 203.260 291.120,204.542 291.723,205.448 291.964 C 206.354 292.206,207.533 292.747,208.067 293.167 C 208.601 293.587,210.020 294.248,211.219 294.635 C 212.419 295.022,213.957 295.757,214.638 296.269 C 215.319 296.781,216.114 297.200,216.406 297.200 C 216.881 297.200,220.120 298.735,222.800 300.230 C 223.350 300.537,224.191 300.791,224.669 300.794 C 225.147 300.797,226.075 301.252,226.731 301.804 C 227.387 302.356,229.066 303.245,230.462 303.779 C 231.858 304.313,234.800 305.646,237.000 306.741 C 239.200 307.836,242.260 309.203,243.800 309.779 C 245.340 310.355,247.630 311.458,248.889 312.231 C 250.148 313.003,252.128 313.968,253.289 314.373 C 254.450 314.779,257.537 316.121,260.150 317.356 C 262.762 318.590,265.107 319.600,265.359 319.600 C 265.612 319.600,266.804 320.250,268.009 321.044 C 270.911 322.957,275.036 325.017,277.051 325.560 C 277.944 325.800,279.469 326.535,280.438 327.191 C 281.407 327.848,282.490 328.389,282.844 328.393 C 283.198 328.397,284.188 328.878,285.044 329.461 C 285.900 330.045,287.590 330.868,288.800 331.290 C 290.010 331.712,291.630 332.475,292.400 332.985 C 293.170 333.496,294.459 334.122,295.265 334.376 C 296.070 334.631,296.812 335.055,296.912 335.319 C 297.137 335.912,296.543 337.600,296.109 337.600 C 295.934 337.600,295.344 338.010,294.796 338.510 C 294.248 339.011,292.945 339.956,291.901 340.610 C 290.856 341.265,290.001 341.931,290.001 342.092 C 290.000 342.252,289.235 342.771,288.300 343.245 C 287.365 343.719,285.959 344.611,285.175 345.228 C 283.788 346.319,281.598 347.859,273.451 353.477 C 271.279 354.975,269.016 356.560,268.421 357.000 C 267.826 357.440,266.093 358.658,264.570 359.707 C 259.483 363.208,254.699 366.799,254.000 367.641 C 253.510 368.231,249.170 371.606,247.567 372.644 C 246.595 373.273,244.664 374.645,243.276 375.694 C 241.888 376.742,240.592 377.600,240.397 377.600 C 240.202 377.600,238.852 378.501,237.397 379.602 C 235.942 380.703,234.178 381.893,233.476 382.246 C 232.774 382.599,231.570 383.466,230.800 384.172 C 229.288 385.559,224.380 388.796,223.772 388.807 C 223.567 388.811,222.410 389.755,221.200 390.905 C 219.990 392.055,218.257 393.447,217.350 393.998 C 212.232 397.105,210.800 398.337,210.800 399.633 C 210.800 400.371,211.879 399.974,212.371 399.055 C 212.649 398.535,214.148 397.320,215.702 396.355 C 217.256 395.390,219.608 393.565,220.928 392.300 C 222.248 391.035,223.486 390.000,223.680 390.000 C 224.355 390.000,227.018 388.473,228.005 387.520 C 229.147 386.419,232.656 384.090,235.000 382.878 C 235.880 382.423,237.524 381.153,238.653 380.056 C 239.875 378.868,241.356 377.865,242.312 377.579 C 243.303 377.282,244.079 376.746,244.337 376.178 C 244.568 375.672,245.351 374.971,246.078 374.619 C 246.805 374.268,248.150 373.400,249.068 372.690 C 249.985 371.981,251.740 370.629,252.968 369.687 C 254.195 368.745,255.200 367.831,255.200 367.655 C 255.200 367.479,255.695 367.085,256.300 366.779 C 256.905 366.472,258.057 365.677,258.861 365.011 C 260.969 363.263,263.658 361.330,264.824 360.724 C 265.814 360.210,267.156 359.232,269.715 357.159 C 270.422 356.586,271.450 355.882,272.000 355.593 C 272.940 355.101,277.164 352.072,277.600 351.578 C 277.710 351.453,279.420 350.309,281.400 349.036 C 283.380 347.762,285.360 346.366,285.800 345.932 C 286.574 345.168,287.160 344.766,291.233 342.200 C 297.834 338.041,298.932 335.308,294.842 333.222 C 293.877 332.729,292.719 331.983,292.268 331.563 C 291.818 331.143,291.138 330.800,290.758 330.800 C 290.378 330.800,288.926 330.196,287.533 329.457 C 286.140 328.719,284.550 327.977,284.000 327.809 C 283.450 327.641,281.560 326.829,279.800 326.004 C 275.597 324.036,272.836 322.794,271.718 322.369 C 271.218 322.179,269.572 321.208,268.060 320.212 C 266.547 319.215,265.033 318.400,264.695 318.400 C 264.358 318.400,263.028 317.838,261.741 317.151 C 260.453 316.464,257.960 315.246,256.200 314.445 C 254.440 313.643,252.190 312.506,251.200 311.917 C 250.210 311.328,248.500 310.620,247.400 310.344 C 246.300 310.068,245.028 309.518,244.574 309.121 C 244.120 308.725,243.390 308.400,242.952 308.400 C 242.514 308.400,241.535 307.940,240.778 307.377 C 239.163 306.177,238.058 305.666,234.000 304.243 C 231.157 303.246,230.341 302.823,227.838 301.046 C 227.254 300.631,225.937 300.135,224.911 299.944 C 223.886 299.752,222.676 299.264,222.223 298.859 C 221.771 298.453,220.669 297.839,219.776 297.494 C 218.882 297.149,217.082 296.222,215.776 295.435 C 214.469 294.647,213.116 294.002,212.769 294.001 C 212.033 294.000,205.230 291.100,203.866 290.206 C 203.355 289.871,201.974 289.312,200.797 288.962 C 198.728 288.348,196.145 287.063,192.400 284.786 C 191.410 284.184,189.880 283.470,189.000 283.199 C 187.444 282.719,186.891 282.505,183.272 280.981 C 179.582 279.427,177.387 268.136,180.203 265.197 C 181.445 263.901,181.293 263.507,180.036 264.764 " stroke="none" fill="#6f7ef9" fill-rule="evenodd"></path><path id="path4" d="M265.379 1.100 C 265.249 1.705,264.784 2.830,264.345 3.600 C 263.906 4.370,263.009 6.170,262.352 7.600 C 261.695 9.030,260.910 10.740,260.607 11.400 C 260.304 12.060,259.680 13.593,259.220 14.807 C 258.759 16.020,257.848 17.820,257.193 18.807 C 256.539 19.793,256.003 20.797,256.002 21.039 C 256.000 21.484,255.115 23.546,254.301 25.000 C 253.656 26.152,248.053 37.035,246.887 39.400 C 245.421 42.375,244.000 45.651,244.000 46.058 C 244.000 46.255,242.830 48.832,241.400 51.785 C 239.970 54.738,238.800 57.310,238.800 57.501 C 238.800 57.691,238.148 58.916,237.351 60.224 C 235.809 62.753,233.621 68.407,233.608 69.895 C 233.602 70.520,234.113 71.109,235.300 71.847 C 238.723 73.976,242.390 76.460,242.592 76.786 C 242.706 76.971,244.104 77.516,245.699 77.998 C 247.295 78.480,249.590 79.465,250.800 80.185 C 252.010 80.906,255.610 82.850,258.800 84.505 C 271.664 91.180,273.897 92.368,276.176 93.755 C 277.484 94.550,278.854 95.200,279.223 95.200 C 279.591 95.200,280.321 95.535,280.846 95.945 C 281.371 96.355,282.217 96.820,282.726 96.980 C 284.545 97.550,291.272 100.813,292.524 101.733 C 295.273 103.752,299.564 104.820,299.622 103.500 C 299.951 95.909,299.410 80.655,298.640 75.800 C 298.290 73.600,298.004 70.398,298.002 68.684 C 298.000 65.017,297.333 58.472,296.731 56.200 C 296.497 55.320,296.154 52.350,295.967 49.600 C 295.464 42.187,294.888 36.501,294.368 33.800 C 293.947 31.613,294.001 31.055,294.974 27.506 C 295.850 24.312,296.074 22.510,296.219 17.488 C 296.316 14.120,296.573 9.212,296.791 6.582 C 297.009 3.952,297.190 1.395,297.194 0.900 L 297.200 0.000 281.408 0.000 L 265.615 0.000 265.379 1.100 M375.600 0.338 C 375.600 0.725,376.928 2.000,377.331 2.000 C 377.479 2.000,377.600 1.550,377.600 1.000 C 377.600 0.200,377.400 0.000,376.600 0.000 C 376.050 0.000,375.600 0.152,375.600 0.338 M0.000 86.200 L 0.000 162.800 0.900 162.809 C 2.061 162.820,4.842 164.086,6.524 165.369 C 7.249 165.922,9.082 166.662,10.596 167.014 C 12.111 167.365,13.839 168.000,14.437 168.426 C 15.034 168.852,15.650 169.200,15.805 169.200 C 16.480 169.200,21.456 171.761,22.000 172.388 C 22.330 172.769,23.947 173.504,25.594 174.021 C 27.563 174.639,29.007 175.381,29.816 176.189 C 30.824 177.197,31.597 177.511,34.123 177.935 C 36.220 178.288,37.556 178.751,38.316 179.390 C 38.929 179.906,40.443 180.623,41.681 180.983 C 43.096 181.394,44.156 181.979,44.534 182.556 C 44.972 183.224,46.426 183.892,49.868 185.006 C 52.471 185.849,54.870 186.758,55.200 187.028 C 55.530 187.297,58.140 188.264,61.000 189.176 C 66.064 190.792,66.217 190.874,66.834 192.318 C 67.352 193.530,67.789 193.897,69.234 194.330 C 71.980 195.155,75.895 196.724,79.400 198.404 C 81.160 199.248,83.860 200.340,85.400 200.830 C 86.940 201.321,88.401 201.966,88.646 202.264 C 88.892 202.562,89.888 203.045,90.860 203.338 C 91.833 203.631,93.871 204.619,95.389 205.535 C 96.907 206.451,98.465 207.200,98.851 207.200 C 99.237 207.200,99.661 207.375,99.793 207.589 C 99.926 207.803,100.738 208.168,101.599 208.400 C 102.459 208.631,103.667 209.240,104.282 209.752 C 105.378 210.664,108.173 211.714,110.647 212.143 C 111.333 212.262,113.270 213.346,114.951 214.552 C 118.128 216.832,120.661 217.964,125.380 219.214 C 126.940 219.627,128.431 220.290,128.780 220.725 C 129.121 221.151,129.881 221.804,130.470 222.176 L 131.539 222.852 131.525 208.774 C 131.518 201.032,131.396 194.873,131.256 195.088 C 130.310 196.538,128.216 195.033,126.025 191.326 C 125.268 190.047,124.086 188.280,123.398 187.400 C 121.525 185.006,116.909 177.943,116.470 176.800 C 116.036 175.670,111.105 168.532,109.285 166.400 C 108.628 165.630,107.680 164.280,107.179 163.400 C 106.678 162.520,105.778 161.260,105.177 160.600 C 104.577 159.940,103.723 158.674,103.279 157.787 C 102.836 156.900,102.051 155.947,101.536 155.669 C 100.994 155.377,99.969 153.867,99.101 152.082 C 98.277 150.387,96.795 147.920,95.807 146.600 C 94.820 145.280,93.569 143.570,93.028 142.800 C 92.487 142.030,91.450 140.567,90.722 139.549 C 89.995 138.531,88.549 136.503,87.509 135.043 C 86.470 133.583,84.241 130.186,82.557 127.494 C 80.873 124.802,79.342 122.541,79.155 122.469 C 78.967 122.397,78.267 121.317,77.598 120.069 C 76.930 118.821,75.575 116.900,74.589 115.800 C 73.602 114.700,72.326 112.875,71.754 111.744 C 71.182 110.612,69.949 108.812,69.016 107.744 C 68.082 106.675,66.797 104.731,66.159 103.424 C 65.522 102.118,64.153 100.121,63.117 98.987 C 61.630 97.358,55.200 88.242,55.200 87.762 C 55.200 87.701,54.392 86.515,53.405 85.126 C 51.147 81.948,50.620 81.171,44.400 71.830 C 43.630 70.674,42.370 68.875,41.600 67.833 C 40.830 66.791,39.728 65.097,39.151 64.069 C 37.535 61.187,34.766 56.711,33.914 55.600 C 33.492 55.050,32.166 53.340,30.968 51.800 C 29.769 50.260,28.363 48.100,27.841 47.000 C 27.320 45.900,26.512 44.657,26.047 44.238 C 25.581 43.819,25.200 43.178,25.200 42.814 C 25.200 42.450,24.435 41.244,23.500 40.135 C 20.538 36.620,19.939 35.825,19.488 34.800 C 19.246 34.250,18.210 32.810,17.185 31.600 C 16.160 30.390,15.001 28.779,14.609 28.019 C 13.449 25.773,10.726 21.946,10.122 21.715 C 9.815 21.597,9.097 20.578,8.528 19.450 C 6.664 15.760,1.598 9.600,0.426 9.600 C 0.126 9.600,0.000 32.285,0.000 86.200 M372.100 22.265 C 371.114 22.663,371.536 25.679,372.904 28.000 L 374.200 30.200 374.324 28.700 C 374.405 27.719,374.647 27.200,375.024 27.200 C 375.454 27.200,375.600 26.653,375.600 25.039 C 375.600 22.606,374.134 21.444,372.100 22.265 M353.813 78.470 C 353.199 80.232,353.735 84.000,354.600 84.000 C 355.745 84.000,355.840 78.297,354.699 78.076 C 354.313 78.002,353.915 78.179,353.813 78.470 M348.658 95.447 C 347.787 97.275,347.793 99.435,348.671 99.772 C 350.268 100.385,351.590 95.460,350.078 94.533 C 349.412 94.124,349.235 94.238,348.658 95.447 M349.717 107.300 C 349.129 108.568,348.400 110.404,348.400 110.619 C 348.400 110.718,349.210 110.800,350.200 110.800 L 352.000 110.800 352.000 109.080 C 352.000 106.562,350.576 105.451,349.717 107.300 M347.848 114.400 C 348.152 115.993,348.429 116.425,348.687 115.704 C 348.822 115.324,348.998 115.341,349.432 115.775 C 350.104 116.447,350.157 117.359,349.586 118.426 C 349.260 119.035,349.303 119.200,349.786 119.200 C 350.124 119.200,350.400 118.943,350.400 118.629 C 350.400 118.236,351.090 117.971,352.605 117.782 C 355.092 117.471,355.966 116.800,353.883 116.800 C 352.034 116.800,350.000 116.046,350.000 115.361 C 350.000 115.052,349.740 114.800,349.423 114.800 C 349.105 114.800,348.561 114.395,348.214 113.900 C 347.597 113.022,347.588 113.034,347.848 114.400 M347.221 122.779 C 346.767 123.066,346.874 123.203,347.720 123.416 C 348.978 123.732,350.161 123.383,349.802 122.803 C 349.492 122.302,347.996 122.288,347.221 122.779 M364.103 133.864 C 363.414 134.142,364.147 135.441,365.141 135.700 C 366.162 135.967,367.541 134.462,366.740 133.955 C 366.157 133.585,364.901 133.542,364.103 133.864 M387.397 135.595 C 387.537 135.822,387.377 135.889,387.021 135.753 C 386.261 135.461,386.140 136.992,386.885 137.453 C 388.561 138.488,390.558 137.853,389.694 136.560 C 389.134 135.722,386.894 134.781,387.397 135.595 M399.000 137.200 C 399.136 137.420,399.082 137.600,398.879 137.600 C 398.677 137.600,398.601 138.069,398.710 138.643 C 398.831 139.277,398.697 139.817,398.366 140.021 C 397.929 140.291,397.957 140.409,398.509 140.620 C 398.886 140.765,399.096 141.045,398.974 141.242 C 398.852 141.439,399.033 141.600,399.376 141.600 C 400.119 141.600,400.216 140.554,399.500 140.265 C 399.100 140.104,399.100 140.057,399.500 140.032 C 400.286 139.982,400.164 136.800,399.376 136.800 C 399.033 136.800,398.864 136.980,399.000 137.200 M380.384 138.180 C 379.813 138.745,379.919 139.835,380.600 140.400 C 380.930 140.674,381.200 140.764,381.200 140.600 C 381.200 140.436,381.476 140.531,381.814 140.811 C 382.311 141.224,382.615 141.220,383.420 140.789 C 384.518 140.202,385.736 138.131,385.184 137.790 C 384.630 137.448,380.809 137.758,380.384 138.180 M388.889 144.471 C 388.255 145.105,388.261 145.991,388.900 146.031 C 389.950 146.095,390.699 146.333,392.323 147.117 C 393.986 147.921,394.000 147.921,394.000 147.137 C 394.000 145.741,393.258 144.900,391.782 144.623 C 390.991 144.475,390.126 144.270,389.860 144.168 C 389.595 144.066,389.158 144.202,388.889 144.471 " stroke="none" fill="#4805fa" fill-rule="evenodd"></path></g></svg>